[h264 @ 0x5614d04e2180] Reinit context to 1280x720, pix_fmt: yuv420p
Input #0, mov,mp4,m4a,3gp,3g2,mj2, from '/var/www/html/project/media/video/original/lv_0_20240505082423.mp4':
  Metadata:
    major_brand     : isom
    minor_version   : 512
    compatible_brands: isomiso2avc1mp41
    Hw              : 1
    LvMetaInfo      : {"data":{"ad_type":"","adsTemplateId":"","appVersion":"11.8.0","businessComponentId":"","businessTemplateId":"","capabilityName":"","ccTtVid":"72153828","commercial_params":{"commercial_audio_music_cnt":0,"commercial_sticker_cnt":0,"commercial_text_font_c
    aigc_info       : {"aigc_label_type":0,"source_info":""}
    bitrate         : 10000000
    maxrate         : 30000000
    te_is_reencode  : 1
    encoder         : bytevehwavc
  Duration: 00:00:40.06, start: 0.000000, bitrate: 8111 kb/s
    Stream #0:0(und): Video: h264 (High), 1 reference frame (avc1 / 0x31637661), yuv420p(tv, bt709, left), 1280x720, 7924 kb/s, 30 fps, 30 tbr, 1000k tbn, 2000k tbc (default)
    Metadata:
      handler_name    : VideoHandler
    Stream #0:1(und): Audio: aac (LC) (mp4a / 0x6134706D), 44100 Hz, stereo, fltp, 185 kb/s (default)
    Metadata:
      handler_name    : SoundHandler
Input #1, png_pipe, from '/var/www/html/project/static/images/templates/logo.png':
  Duration: N/A, bitrate: N/A
    Stream #1:0: Video: png, 1 reference frame, rgba(pc), 1920x1080 [SAR 2835:2835 DAR 16:9], 25 tbr, 25 tbn, 25 tbc
[h264 @ 0x5614d0568000] Reinit context to 1280x720, pix_fmt: yuv420p
Input #2, mov,mp4,m4a,3gp,3g2,mj2, from '/var/www/html/project/static/images/templates/Codino.mp4':
  Metadata:
    major_brand     : mp42
    minor_version   : 1
    compatible_brands: isommp41mp42
    creation_time   : 2021-07-11T07:02:58.000000Z
  Duration: 00:00:02.00, start: 0.000000, bitrate: 1007 kb/s
    Stream #2:0(ita): Audio: aac (LC) (mp4a / 0x6134706D), 44100 Hz, stereo, fltp, 102 kb/s (default)
    Metadata:
      creation_time   : 2021-07-11T07:02:58.000000Z
      handler_name    : Core Media Audio
    Stream #2:1(und): Video: h264 (High), 1 reference frame (avc1 / 0x31637661), yuv420p(tv, bt709, progressive, left), 1280x720 [SAR 1:1 DAR 16:9], 813 kb/s, 25 fps, 25 tbr, 25k tbn, 50k tbc (default)
    Metadata:
      creation_time   : 2021-07-11T07:02:58.000000Z
      handler_name    : Core Media Video
[Parsed_scale_0 @ 0x5614d050d6c0] w:1280 h:720 flags:'bilinear' interl:0
[Parsed_scale_2 @ 0x5614d056b7c0] w:1280 h:720 flags:'bilinear' interl:0
[Parsed_scale_4 @ 0x5614d05db700] w:1280 h:720 flags:'bilinear' interl:0
Stream mapping:
  Stream #0:0 (h264) -> scale
  Stream #0:1 (aac) -> concat:in0:a0
  Stream #1:0 (png) -> scale
  Stream #2:0 (aac) -> concat:in1:a0
  Stream #2:1 (h264) -> scale
  concat:out:v0 -> Stream #0:0 (libx264)
  concat:out:a0 -> Stream #0:1 (aac)
Press [q] to stop, [?] for help
[h264 @ 0x5614d06b4f00] Reinit context to 1280x720, pix_fmt: yuv420p
[h264 @ 0x5614d09226c0] Reinit context to 1280x720, pix_fmt: yuv420p
[Parsed_scale_0 @ 0x5614d17bbe00] w:1280 h:720 flags:'bilinear' interl:0
[Parsed_scale_2 @ 0x5614d17c0640] w:1280 h:720 flags:'bilinear' interl:0
[Parsed_scale_4 @ 0x5614d17c5080] w:1280 h:720 flags:'bilinear' interl:0
[graph 0 input from stream 0:0 @ 0x5614d17c9880] w:1280 h:720 pixfmt:yuv420p tb:1/1000000 fr:30/1 sar:0/1 sws_param:flags=2
[graph 0 input from stream 1:0 @ 0x5614d17ca900] w:1920 h:1080 pixfmt:rgba tb:1/25 fr:25/1 sar:2835/2835 sws_param:flags=2
[graph 0 input from stream 2:1 @ 0x5614d17cb980] w:1280 h:720 pixfmt:yuv420p tb:1/25000 fr:25/1 sar:1/1 sws_param:flags=2
[graph_0_in_0_1 @ 0x5614d17cc940] tb:1/44100 samplefmt:fltp samplerate:44100 chlayout:0x3
[graph_0_in_2_0 @ 0x5614d17cda80] tb:1/44100 samplefmt:fltp samplerate:44100 chlayout:0x3
[Parsed_scale_0 @ 0x5614d17bbe00] w:1280 h:720 fmt:yuv420p sar:0/1 -> w:1280 h:720 fmt:yuv420p sar:0/1 flags:0x2
[Parsed_setsar_1 @ 0x5614d0669d40] w:1280 h:720 sar:0/1 dar:16/9 -> sar:1/1 dar:16/9
[Parsed_scale_2 @ 0x5614d17c0640] w:1920 h:1080 fmt:rgba sar:2835/2835 -> w:1280 h:720 fmt:yuva420p sar:1/1 flags:0x2
[Parsed_setsar_3 @ 0x5614d17c4740] w:1280 h:720 sar:1/1 dar:16/9 -> sar:1/1 dar:16/9
[Parsed_overlay_6 @ 0x5614d17c67c0] main w:1280 h:720 fmt:yuv420p overlay w:1280 h:720 fmt:yuva420p
[Parsed_overlay_6 @ 0x5614d17c67c0] [framesync @ 0x5614d17c6928] Selected 1/1000000 time base
[Parsed_overlay_6 @ 0x5614d17c67c0] [framesync @ 0x5614d17c6928] Sync level 2
[Parsed_scale_4 @ 0x5614d17c5080] w:1280 h:720 fmt:yuv420p sar:1/1 -> w:1280 h:720 fmt:yuv420p sar:1/1 flags:0x2
[Parsed_setsar_5 @ 0x5614d17c5b40] w:1280 h:720 sar:1/1 dar:16/9 -> sar:1/1 dar:16/9
[libx264 @ 0x5614d06b2940] using SAR=1/1
[libx264 @ 0x5614d06b2940] using cpu capabilities: MMX2 SSE2Fast SSSE3 SSE4.2 AVX FMA3 BMI2 AVX2
[libx264 @ 0x5614d06b2940] profile High, level 3.1
[libx264 @ 0x5614d06b2940] 264 - core 155 r2917 0a84d98 - H.264/MPEG-4 AVC codec - Copyleft 2003-2018 - http://www.videolan.org/x264.html - options: cabac=1 ref=1 deblock=1:0:0 analyse=0x3:0x113 me=hex subme=2 psy=1 psy_rd=1.00:0.00 mixed_ref=0 me_range=16 chroma_me=1 trellis=0 8x8dct=1 cqm=0 deadzone=21,11 fast_pskip=1 chroma_qp_offset=0 threads=22 lookahead_threads=5 sliced_threads=0 nr=0 decimate=1 interlaced=0 bluray_compat=0 constrained_intra=0 bframes=3 b_pyramid=2 b_adapt=1 b_bias=0 direct=1 weightb=1 open_gop=0 weightp=1 keyint=250 keyint_min=25 scenecut=40 intra_refresh=0 rc_lookahead=10 rc=crf mbtree=1 crf=18.0 qcomp=0.60 qpmin=0 qpmax=69 qpstep=4 ip_ratio=1.40 aq=1:1.00
Output #0, mp4, to '/var/www/html/project/media/video/watermarks/lv_0_20240505082423.mp4':
  Metadata:
    major_brand     : isom
    minor_version   : 512
    compatible_brands: isomiso2avc1mp41
    Hw              : 1
    LvMetaInfo      : {"data":{"ad_type":"","adsTemplateId":"","appVersion":"11.8.0","businessComponentId":"","businessTemplateId":"","capabilityName":"","ccTtVid":"72153828","commercial_params":{"commercial_audio_music_cnt":0,"commercial_sticker_cnt":0,"commercial_text_font_c
    aigc_info       : {"aigc_label_type":0,"source_info":""}
    bitrate         : 10000000
    maxrate         : 30000000
    te_is_reencode  : 1
    encoder         : Lavf58.29.100
    Stream #0:0: Video: h264 (libx264), 1 reference frame (avc1 / 0x31637661), yuv420p(progressive), 1280x720 [SAR 1:1 DAR 16:9], q=-1--1, 30 fps, 15360 tbn, 30 tbc (default)
    Metadata:
      encoder         : Lavc58.54.100 libx264
    Side data:
      cpb: bitrate max/min/avg: 0/0/0 buffer size: 0 vbv_delay: -1
    Stream #0:1: Audio: aac (LC) (mp4a / 0x6134706D), 44100 Hz, stereo, fltp, delay 1024, 128 kb/s (default)
    Metadata:
      encoder         : Lavc58.54.100 aac
[Parsed_overlay_6 @ 0x5614d17c67c0] [framesync @ 0x5614d17c6928] Sync level 0
[Parsed_concat_7 @ 0x5614d17c78c0] EOF on in0:v0, 1 streams left in segment.
[Parsed_concat_7 @ 0x5614d17c78c0] EOF on in0:a0, 0 streams left in segment.
[Parsed_concat_7 @ 0x5614d17c78c0] Segment finished at pts=40033333
[Parsed_concat_7 @ 0x5614d17c78c0] EOF on in1:a0, 1 streams left in segment.
[Parsed_concat_7 @ 0x5614d17c78c0] EOF on in1:v0, 0 streams left in segment.
[Parsed_concat_7 @ 0x5614d17c78c0] Segment finished at pts=42052018
No more output streams to write to, finishing.
frame= 1251 fps= 66 q=-1.0 Lsize=   32179kB time=00:00:42.07 bitrate=6265.2kbits/s speed=2.22x    
[AVIOContext @ 0x5614d04e0440] Statistics: 0 seeks, 38 writeouts
video:31446kB audio:687kB subtitle:0kB other streams:0kB global headers:0kB muxing overhead: 0.141991%
Input file #0 (/var/www/html/project/media/video/original/lv_0_20240505082423.mp4):
  Input stream #0:0 (video): 1201 packets read (39653303 bytes); 1201 frames decoded; 
  Input stream #0:1 (audio): 1725 packets read (929329 bytes); 1723 frames decoded (1764352 samples); 
  Total: 2926 packets (40582632 bytes) demuxed
Input file #1 (/var/www/html/project/static/images/templates/logo.png):
  Input stream #1:0 (video): 1 packets read (111578 bytes); 1 frames decoded; 
  Total: 1 packets (111578 bytes) demuxed
Input file #2 (/var/www/html/project/static/images/templates/Codino.mp4):
  Input stream #2:0 (audio): 89 packets read (26579 bytes); 87 frames decoded (89024 samples); 
  Input stream #2:1 (video): 50 packets read (203365 bytes); 50 frames decoded; 
  Total: 139 packets (229944 bytes) demuxed
Output file #0 (/var/www/html/project/media/video/watermarks/lv_0_20240505082423.mp4):
  Output stream #0:0 (video): 1251 frames encoded; 1251 packets muxed (32200866 bytes); 
  Output stream #0:1 (audio): 1812 frames encoded (1854491 samples); 1813 packets muxed (703326 bytes); 
  Total: 3064 packets (32904192 bytes) muxed
[AVIOContext @ 0x5614d05db800] Statistics: 2 seeks, 129 writeouts
[libx264 @ 0x5614d06b2940] frame I:7     Avg QP:16.30  size: 96051
[libx264 @ 0x5614d06b2940] frame P:346   Avg QP:19.13  size: 40851
[libx264 @ 0x5614d06b2940] frame B:898   Avg QP:21.50  size: 19369
[libx264 @ 0x5614d06b2940] consecutive B-frames:  3.2%  2.4%  2.6% 91.8%
[libx264 @ 0x5614d06b2940] mb I  I16..4: 12.3% 33.1% 54.6%
[libx264 @ 0x5614d06b2940] mb P  I16..4: 11.1% 31.8%  4.7%  P16..4: 20.3% 12.8%  8.7%  0.0%  0.0%    skip:10.7%
[libx264 @ 0x5614d06b2940] mb B  I16..4:  5.9% 14.6%  0.4%  B16..8: 26.9% 11.7%  1.5%  direct:23.3%  skip:15.8%  L0:41.6% L1:37.1% BI:21.3%
[libx264 @ 0x5614d06b2940] 8x8 transform intra:67.8% inter:53.3%
[libx264 @ 0x5614d06b2940] coded y,uvDC,uvAC intra: 70.2% 68.5% 24.4% inter: 28.0% 61.4% 5.6%
[libx264 @ 0x5614d06b2940] i16 v,h,dc,p: 34% 18% 37% 11%
[libx264 @ 0x5614d06b2940] i8 v,h,dc,ddl,ddr,vr,hd,vl,hu: 23% 19% 23%  4%  6%  5%  8%  5%  7%
[libx264 @ 0x5614d06b2940] i4 v,h,dc,ddl,ddr,vr,hd,vl,hu: 27% 23% 12%  5%  7%  6%  7%  6%  6%
[libx264 @ 0x5614d06b2940] i8c dc,h,v,p: 50% 24% 19%  8%
[libx264 @ 0x5614d06b2940] Weighted P-Frames: Y:30.9% UV:26.3%
[libx264 @ 0x5614d06b2940] kb/s:6128.50
[aac @ 0x5614d06b3f00] Qavg: 2654.177
[AVIOContext @ 0x5614d04e93c0] Statistics: 69421264 bytes read, 1669 seeks
[AVIOContext @ 0x5614d0504200] Statistics: 111578 bytes read, 0 seeks
[AVIOContext @ 0x5614d053a640] Statistics: 1530915 bytes read, 42 seeks
